<?xml version="1.0" standalone="no"?>
<!DOCTYPE svg PUBLIC "-//W3C//DTD SVG 20010904//EN"
 "http://www.w3.org/TR/2001/REC-SVG-20010904/DTD/svg10.dtd">
<svg version="1.0" xmlns="http://www.w3.org/2000/svg"
 width="216.000000pt" height="145.000000pt" viewBox="0 0 216.000000 145.000000"
 preserveAspectRatio="xMidYMid meet">

<g transform="translate(0.000000,145.000000) scale(0.100000,-0.100000)"
fill="#000000" stroke="none">
<path d="M930 1343 c-52 -9 -128 -37 -205 -77 -97 -49 -221 -168 -278 -266
-41 -72 -81 -187 -92 -267 l-7 -53 301 0 301 0 0 35 0 35 59 0 60 0 4 -37 4
-38 1 38 2 37 60 0 60 0 0 -35 0 -35 285 0 285 0 0 38 c0 104 -74 276 -167
387 -94 112 -222 189 -382 231 -51 13 -229 17 -291 7z m80 -123 c9 -5 19 -5
27 2 21 17 43 1 43 -32 0 -31 -19 -40 -49 -21 -29 18 -41 1 -41 -60 0 -32 3
-59 8 -59 4 1 22 9 41 19 35 18 35 18 99 -10 35 -16 66 -29 68 -29 13 0 1 53
-16 70 -24 24 -26 58 -3 89 l16 24 11 -34 c19 -59 81 -47 69 13 -6 29 -5 30
16 19 47 -26 51 -98 6 -127 -19 -13 -25 -25 -25 -54 0 -37 1 -37 83 -75 45
-20 88 -39 95 -42 7 -3 12 3 12 16 0 17 -6 21 -30 21 -19 0 -33 7 -40 19 -15
28 -13 111 3 111 6 1 35 3 62 6 28 2 62 1 78 -2 24 -5 27 -10 27 -49 0 -58 -8
-75 -35 -75 -47 0 -58 -61 -14 -75 16 -5 19 -16 19 -61 l0 -54 -32 14 c-18 7
-121 53 -227 101 -107 49 -200 88 -205 88 -6 0 -99 -39 -206 -88 -107 -48
-210 -93 -227 -101 l-33 -14 0 54 c0 48 2 54 24 60 13 3 26 15 29 26 4 15 13
20 34 19 16 -2 71 18 128 44 l100 46 3 76 c3 75 3 75 -23 75 -14 0 -39 -7 -55
-15 -33 -17 -36 -14 -19 16 25 48 134 78 179 49z m-216 -122 c29 -56 22 -72
-50 -117 -36 -23 -62 -36 -58 -30 3 6 30 26 60 45 38 24 54 41 54 56 0 17 -3
19 -12 10 -8 -8 -49 -12 -120 -12 l-108 0 0 40 0 40 109 0 110 0 15 -32z m274
-275 l-3 -58 -55 0 -55 0 -3 58 -3 57 61 0 61 0 -3 -57z m130 0 l-3 -58 -55 0
-55 0 -3 58 -3 57 61 0 61 0 -3 -57z"/>
<path d="M253 605 c-14 -9 -23 -27 -23 -41 0 -21 8 -29 40 -41 22 -9 40 -22
40 -30 0 -15 -26 -18 -35 -3 -3 6 -15 10 -26 10 -29 0 -20 -32 13 -48 36 -17
77 -6 89 25 12 31 -2 50 -48 70 -47 19 -42 36 7 28 22 -4 40 -3 40 2 -1 35
-63 53 -97 28z"/>
<path d="M385 608 c-3 -8 -5 -48 -3 -89 2 -58 6 -74 18 -74 8 0 16 11 18 25 6
39 18 44 32 11 12 -29 45 -50 58 -37 3 4 -2 21 -12 38 -17 28 -17 31 -2 40 20
11 21 61 1 78 -24 20 -103 26 -110 8z m85 -48 c0 -15 -7 -20 -25 -20 -18 0
-25 5 -25 20 0 15 7 20 25 20 18 0 25 -5 25 -20z"/>
<path d="M597 613 c-11 -11 -8 -161 3 -168 17 -11 40 15 40 44 l0 26 19 -31
c24 -39 39 -50 53 -36 7 7 5 17 -5 32 -14 21 -14 25 5 50 26 35 17 65 -24 79
-35 12 -81 14 -91 4z m83 -53 c0 -13 -7 -20 -20 -20 -13 0 -20 7 -20 20 0 13
7 20 20 20 13 0 20 -7 20 -20z"/>
<path d="M754 607 c-3 -8 -4 -47 -2 -88 l3 -74 50 0 c39 0 50 4 53 18 3 14 -4
17 -33 17 -29 0 -36 3 -33 18 2 10 14 18 31 20 38 5 36 32 -3 32 -42 0 -40 28
3 32 20 2 32 8 32 18 0 21 -93 27 -101 7z"/>
<path d="M892 533 c2 -70 6 -88 18 -88 10 0 16 12 18 32 2 24 9 33 25 35 29 4
28 32 0 36 -35 5 -28 30 10 34 20 2 32 8 32 18 0 11 -14 16 -53 18 l-53 3 3
-88z"/>
<path d="M1060 608 c-69 -37 -58 -144 17 -163 59 -15 121 45 108 105 -12 54
-76 83 -125 58z m68 -40 c7 -7 12 -24 12 -38 0 -50 -47 -68 -74 -28 -20 28
-20 43 0 62 18 19 45 21 62 4z"/>
<path d="M1215 608 c-3 -8 -5 -48 -3 -89 2 -58 6 -74 18 -74 9 0 17 13 21 35
l5 35 20 -32 c32 -54 76 -56 49 -2 -14 27 -14 31 0 45 19 20 19 58 0 74 -24
20 -103 26 -110 8z m85 -48 c0 -15 -7 -20 -25 -20 -18 0 -25 5 -25 20 0 15 7
20 25 20 18 0 25 -5 25 -20z"/>
<path d="M1375 607 c-3 -7 -5 -47 -3 -88 2 -58 6 -74 18 -74 11 0 16 13 18 45
l4 45 22 -45 c12 -25 28 -45 36 -45 8 0 22 20 31 45 l17 45 4 -45 c2 -32 7
-45 18 -45 12 0 16 18 18 88 3 87 2 88 -20 85 -17 -2 -28 -16 -43 -55 -11 -29
-22 -53 -26 -53 -3 0 -16 24 -30 53 -24 51 -54 72 -64 44z"/>
<path d="M1645 611 c-3 -6 -17 -43 -31 -83 -17 -52 -21 -75 -13 -82 8 -8 15
-4 26 12 18 26 60 29 78 5 14 -19 45 -26 44 -10 0 7 -12 46 -28 87 -21 57 -32
76 -48 78 -12 2 -24 -2 -28 -7z m37 -76 c4 -20 1 -25 -14 -25 -14 0 -18 5 -14
16 3 9 6 20 6 25 0 20 18 7 22 -16z"/>
<path d="M1790 602 c-35 -28 -21 -65 32 -85 32 -13 39 -20 30 -29 -9 -9 -17
-9 -36 1 -28 15 -48 7 -39 -15 14 -38 94 -39 114 -2 15 28 3 52 -36 71 -46 22
-46 40 0 31 28 -5 35 -3 35 10 0 35 -64 47 -100 18z"/>
<path d="M1268 333 c7 -3 16 -2 19 1 4 3 -2 6 -13 5 -11 0 -14 -3 -6 -6z"/>
</g>
</svg>
